<?xml version="1.0" encoding="utf-8"?><svg viewBox="0 0 47 44" xmlns="http://www.w3.org/2000/svg" xmlns:xlink="http://www.w3.org/1999/xlink"><style>:root>svg{display:none}:root>svg:target{display:block}</style><svg viewBox="0 0 26 38" id="ico-avocado" xmlns="http://www.w3.org/2000/svg"><path fill-rule="evenodd" fill="#FFF" d="M13 14.423c-3.36 0-6.084 4.945-6.084 9.709 0 4.764 2.724 7.542 6.084 7.542 3.361 0 6.85-2.778 6.85-7.542 0-4.764-3.489-9.709-6.85-9.709zm12.9 8.987c-.37-3.436-1.42-6.63-3.161-9.449-.38-.82-.74-1.594-1.051-2.33-.721-1.703-1.302-3.408-1.815-4.911-.93-2.726-1.602-4.47-2.689-4.81C16.338.364 15.433.4 14.492.4c-.496 0-.994-.296-1.272-.088-.675-.208-.75.088-1.669.088-.941 0-1.847-.036-2.693 1.51-1.107.52-1.138 2.36-2.725 4.862-.503 1.469-.523 3.132-1.78 4.827.217.708-.635 1.991-.994 2.258C2.61 16.733.591 19.994.147 23.381c.24 4.08.398 7.615 2.696 10.222 2.835 3.217 7.066 4.378 10.106 4.393h.351c2.665 0 6.818-1.126 9.671-4.288 2.359-1.768 3.372-6.175 2.929-10.298zm-4.07 8.76c-3.02 2.367-6.447 3.277-8.726 3.297h-.166c-2.375-.02-5.678-.952-8.187-3.532-1.828-2.074-2.53-4.005-2.086-8.226.935-3.019 1.784-6.099 3.01-8.817.745-.092.713-1.581 1.023-2.321.739-1.772 1.512-2.641 1.838-4.983.686-2.006 1.396-4.079 1.981-3.988.372-.914.719-1.076 1.034-1.076.237 0 .829.091.745.27l.924.504.528-.504c.599-.416 1.126-.349 1.777.806 1.365-.11 1.265 1.946 1.943 3.934.527 2.236 1.124 3.292 1.88 5.08.328.776 1.092 1.569 1.086 2.606 1.226 2.444 3.066 5.438 2.941 8.459.37 3.438-.402 6.243-1.545 8.491z"/></svg><svg viewBox="0 0 43.62 44" id="ico-communicate" xmlns="http://www.w3.org/2000/svg"><defs><style>.bcls-1{fill:#fff;fill-rule:evenodd}</style></defs><path class="bcls-1" d="M10.89 12.83a3.67 3.67 0 103.64 3.67 3.651 3.651 0 00-3.64-3.67zm0 5.5a1.83 1.83 0 111.82-1.83 1.829 1.829 0 01-1.82 1.83zm10.91-5.5a3.67 3.67 0 103.64 3.67 3.651 3.651 0 00-3.64-3.67zm0 5.5a1.83 1.83 0 111.82-1.83 1.829 1.829 0 01-1.82 1.83zm10.91-5.5a3.67 3.67 0 103.64 3.67 3.66 3.66 0 00-3.64-3.67zm0 5.5a1.83 1.83 0 111.82-1.83 1.829 1.829 0 01-1.82 1.83zM38.17 0H5.44A5.482 5.482 0 00-.02 5.5v22A5.482 5.482 0 005.44 33h10.91l-3.64 11 16.36-11h9.1a5.474 5.474 0 005.45-5.5v-22A5.474 5.474 0 0038.17 0zm3.63 27.5a3.651 3.651 0 01-3.63 3.67h-10l-12.73 9.16 3.63-9.16H5.44A3.653 3.653 0 011.8 27.5v-22a3.66 3.66 0 013.64-3.67h32.73A3.658 3.658 0 0141.8 5.5v22z"/></svg><svg viewBox="0 0 47 33" id="ico-connect" xmlns="http://www.w3.org/2000/svg"><defs><style>.ccls-1{fill:#fff;fill-rule:evenodd}</style></defs><path class="ccls-1" d="M43.213 20.49a12.206 12.206 0 00.43-3.17A12.483 12.483 0 0031.054 4.95a12.726 12.726 0 00-5.025 1.03A10.1 10.1 0 006.714 9.9a9.224 9.224 0 00.111 1.07A11.515 11.515 0 0011.75 33h28.536A6.661 6.661 0 0047 26.4a6.562 6.562 0 00-3.787-5.91zm-2.927 10.86H11.75a9.868 9.868 0 01-4.22-18.88l1.094-.5-.131-1.17c-.014-.13-.03-.25-.047-.37a3.964 3.964 0 01-.053-.53 8.412 8.412 0 0116.1-3.26l.668 1.52 1.544-.67a11.043 11.043 0 014.354-.89 10.829 10.829 0 0110.91 10.72 10.533 10.533 0 01-.374 2.74l-.352 1.31 1.239.6a4.9 4.9 0 012.844 4.43 5 5 0 01-5.04 4.95z"/></svg><svg viewBox="0 0 43.625 40.34" id="ico-resources" xmlns="http://www.w3.org/2000/svg"><defs><style>.dcls-1{fill:#fff;fill-rule:evenodd}</style></defs><path class="dcls-1" d="M40 5.5H3.636A3.651 3.651 0 000 9.17v27.5a3.649 3.649 0 003.636 3.66H40a3.649 3.649 0 003.636-3.66V9.17A3.651 3.651 0 0040 5.5zm1.818 31.17A1.824 1.824 0 0140 38.5H3.636a1.824 1.824 0 01-1.818-1.83v-7.34h40v7.34zm0-9.17h-40v-9.17h40v9.17zm0-11h-40V9.17a1.827 1.827 0 011.818-1.84H40a1.827 1.827 0 011.818 1.84v7.33zM18.182 1.83h7.273a1.827 1.827 0 011.818 1.84h1.818A3.651 3.651 0 0025.455 0h-7.273a3.652 3.652 0 00-3.637 3.67h1.819a1.827 1.827 0 011.818-1.84z"/></svg><svg viewBox="0 0 32 38" id="ico-strawberry" xmlns="http://www.w3.org/2000/svg"><path fill-rule="evenodd" fill="#E3E9EA" d="M29.3 10.223c-1.983-2.068-4.358-2.603-7.139-2.603.009 0-.284.12-.427.17 4.125-2.493 4.477-5.844 4.477-5.844-5.406-.619-7.859 2.154-8.929 4.484.608-2.292-.726-4.557-2.035-6.23l-2.086 1.262c1.179 1.252 1.304 2.783 1.505 4.186-1.173-1.966-3.476-4.282-8.709-3.702 0 0 .353 3.36 4.494 5.924-.203-.11-.011-.25-.613-.25-2.268 0-5.156.535-6.87 2.603-4.435 5.355-2.066 12.492 1.55 19.583 1.72 2.764 3.348 4.058 3.596 4.331.369.459 3.25 3.861 7.43 3.861.093 0 .186-.001.28-.005h.351c.094.004.187.005.28.005 4.18 0 7.061-3.403 7.43-3.861.249-.273 1.875-1.567 3.597-4.331 5.42-7.091 5.985-14.229 1.818-19.583zm-7.848 1.167c.777 0 1.195.608.961 1.359-.27.867-.961 1.802-.961 1.802s-.696-.954-.957-1.83c-.22-.74.18-1.331.957-1.331zM4.624 14.688c.777 0 1.195.959.961 1.71-.27.867-.961 1.802-.961 1.802s-.696-.954-.957-1.829c-.22-.74.181-1.683.957-1.683zM6.223 24.92c-.271.039-.961.974-.961.974s-.697-.955-.957-1.244c.535-1.325.179-2.268.957-2.268 1.128 0 1.194.96.961 2.538zm3.494 4.243c-.271 1.137-.961 1.802-.961 1.802s-.156-.855-.957-1.829c-.221-.74.18-1.683.957-1.683.777 0 1.195.96.961 1.71zm.023-10.211c-.271.868-.961 1.803-.961 1.803s.041-.954-.957-1.83c-.221-.74.278-1.683.957-1.683.777 0 1.194.96.961 1.71zm-.433-5.082c.563-1.523.18-2.466.957-2.466 1.146 0 1.195.959.961 1.709-.27.868-.961 1.803-.961 1.803s-.696-.954-.957-1.046zm1.258 10.671c-.22-.74.181-1.683.958-1.683.776 0 1.194.959.96 1.71-.27.867-.96 1.802-.96 1.802s-.697-.954-.958-1.829zm3.298 8.735c-.27.867-.961 2.514-.961 2.514s-.697-1.667-.957-2.542c-.221-.739.18-1.682.957-1.682.777 0 2.058.959.961 1.71zm1.434-14.118c1.443 0 1.195.959.961 1.71-.271.867-.961 1.802-.961 1.802s-.696-.954-.957-1.829c-.221-.74.18-1.683.957-1.683zm1.052 9.374c.431.867-.961 1.802-.961 1.802s-.696-.954-.957-1.83c-.221-.739.18-1.682.957-1.682.777 0 1.195.959.961 1.71zm.606-14.141c-.27.867-.96 1.802-.96 1.802s-.697-.954-.625-1.829c-.553-.74-.152-1.683.625-1.683.776 0 1.194.959.96 1.71zM19.18 32.88a7.87 7.87 0 00-.61 1.803s-1.21-.955-1.47-1.83c-.221-.74.179-1.683 1.47-1.683.264 0 .681.96.61 1.71zm1.262-8.606c-.27.868-.96 2.496-.96 2.496s-.697-1.648-.958-2.522c-.22-.741.181-1.684.958-1.684.776 0 1.194.96.96 1.71zm2.76 5.505c-.271.867-.961 1.802-.961 1.802s-.696-.955-.957-1.83c.346-.641.18-1.071.957-1.071.939 0 1.195.6.961 1.099zm.364-10.584c-.271 1.435-.961 1.803-.961 1.803s-.697-.568-.957-1.83c-.221-.739.179-1.683.957-1.683.777 0 1.194.96.961 1.71zm5.264 5.415c-1.018.319-1.708 1.254-1.708 1.254s-.696-.954-.957-1.524c-.221-1.046.18-1.989.957-1.989.777 0 1.195.96 1.708 2.259zm-.414-8.212c-.27.867-.96 1.802-.96 1.802s-.697-.954-.958-1.829c-.22-.74.181-1.683.958-1.683.776 0 1.194.959.96 1.71z"/></svg><svg viewBox="0 0 43.656 44" id="ico-training" xmlns="http://www.w3.org/2000/svg"><defs><style>.fcls-1{fill:#fff;fill-rule:evenodd}</style></defs><path class="fcls-1" d="M19.554 26.89a4.532 4.532 0 006.209-1.68l3.791-15.79-11.664 11.2a4.614 4.614 0 001.664 6.27zm-.2-5.14l6.974-6.7-2.267 9.44a2.716 2.716 0 01-3.6.81 2.765 2.765 0 01-1.103-3.55zM21.823 0a22 22 0 1021.818 22A21.91 21.91 0 0021.827 0zm0 42.17A20.074 20.074 0 011.846 22.92h3.613v-1.84H1.866a20.139 20.139 0 015.2-12.66l2.545 2.56 1.285-1.3-2.543-2.56a19.837 19.837 0 0112.562-5.26V5.5h1.819V1.86a19.837 19.837 0 0112.562 5.26l-2.543 2.56 1.285 1.3 2.545-2.56a20.139 20.139 0 015.2 12.66H38.19v1.84h3.613a20.074 20.074 0 01-19.976 19.25z"/></svg></svg>