<svg 
 xmlns="http://www.w3.org/2000/svg"
 xmlns:xlink="http://www.w3.org/1999/xlink"
 width="32px" height="38px">
<path fill-rule="evenodd"  fill="rgb(227, 233, 234)"
 d="M29.30,10.223 C27.317,8.155 24.942,7.62 22.161,7.62 C22.17,7.62 21.877,7.74 21.734,7.79 C25.859,5.297 26.211,1.946 26.211,1.946 C20.805,1.327 18.352,4.10 17.282,6.43 C17.89,4.138 16.556,1.873 15.247,0.2 L13.161,1.462 C14.34,2.714 14.465,4.245 14.666,5.648 C13.493,3.682 11.19,1.366 5.957,1.946 C5.957,1.946 6.310,5.306 10.451,7.87 C10.248,7.76 10.44,7.62 9.838,7.62 C7.57,7.62 4.682,8.155 2.968,10.223 C-1.467,15.578 0.902,22.715 4.518,29.806 C6.238,32.57 7.866,33.864 8.114,34.137 C8.483,34.596 11.364,37.998 15.544,37.998 C15.637,37.998 15.730,37.997 15.824,37.993 L16.175,37.993 C16.269,37.997 16.362,37.998 16.455,37.998 C20.635,37.998 23.516,34.595 23.885,34.137 C24.134,33.864 25.760,32.57 27.482,29.806 C32.902,22.715 33.467,15.577 29.30,10.223 ZM21.452,11.39 C22.229,11.39 22.647,11.998 22.413,12.749 C22.143,13.616 21.452,14.551 21.452,14.551 C21.452,14.551 20.756,13.597 20.495,12.721 C20.275,11.981 20.675,11.39 21.452,11.39 ZM4.624,14.688 C5.401,14.688 5.819,15.647 5.585,16.398 C5.315,17.265 4.624,18.200 4.624,18.200 C4.624,18.200 3.928,17.246 3.667,16.371 C3.447,15.631 3.848,14.688 4.624,14.688 ZM6.223,24.92 C5.952,24.959 5.262,25.894 5.262,25.894 C5.262,25.894 4.565,24.939 4.305,24.65 C4.84,23.325 4.484,22.382 5.262,22.382 C6.39,22.382 6.456,23.342 6.223,24.92 ZM9.717,29.163 C9.446,30.30 8.756,30.965 8.756,30.965 C8.756,30.965 8.60,30.11 7.799,29.136 C7.578,28.396 7.979,27.453 8.756,27.453 C9.533,27.453 9.951,28.413 9.717,29.163 ZM9.740,18.952 C9.469,19.820 8.779,20.755 8.779,20.755 C8.779,20.755 8.82,19.801 7.822,18.925 C7.601,18.185 8.1,17.242 8.779,17.242 C9.556,17.242 9.973,18.202 9.740,18.952 ZM9.307,13.87 C9.87,12.347 9.487,11.404 10.264,11.404 C11.41,11.404 11.459,12.363 11.225,13.113 C10.955,13.981 10.264,14.916 10.264,14.916 C10.264,14.916 9.568,13.962 9.307,13.87 ZM10.565,24.541 C10.345,23.801 10.746,22.858 11.523,22.858 C12.299,22.858 12.717,23.817 12.483,24.568 C12.213,25.435 11.523,26.370 11.523,26.370 C11.523,26.370 10.826,25.416 10.565,24.541 ZM13.863,33.276 C13.593,34.143 12.902,35.79 12.902,35.79 C12.902,35.79 12.205,34.123 11.945,33.248 C11.724,32.509 12.125,31.566 12.902,31.566 C13.679,31.566 14.96,32.525 13.863,33.276 ZM15.297,19.158 C16.74,19.158 16.492,20.117 16.258,20.868 C15.987,21.735 15.297,22.670 15.297,22.670 C15.297,22.670 14.601,21.716 14.340,20.841 C14.119,20.101 14.520,19.158 15.297,19.158 ZM16.349,28.532 C16.78,29.399 15.388,30.334 15.388,30.334 C15.388,30.334 14.692,29.380 14.431,28.504 C14.210,27.765 14.611,26.822 15.388,26.822 C16.165,26.822 16.583,27.781 16.349,28.532 ZM16.955,14.391 C16.685,15.258 15.995,16.193 15.995,16.193 C15.995,16.193 15.298,15.239 15.37,14.364 C14.817,13.624 15.218,12.681 15.995,12.681 C16.771,12.681 17.189,13.640 16.955,14.391 ZM19.18,32.880 C18.747,33.748 18.57,34.683 18.57,34.683 C18.57,34.683 17.360,33.728 17.100,32.853 C16.879,32.113 17.279,31.170 18.57,31.170 C18.834,31.170 19.251,32.130 19.18,32.880 ZM20.442,24.274 C20.172,25.142 19.482,26.77 19.482,26.77 C19.482,26.77 18.785,25.122 18.524,24.248 C18.304,23.507 18.705,22.564 19.482,22.564 C20.258,22.564 20.676,23.524 20.442,24.274 ZM23.202,29.779 C22.931,30.646 22.241,31.581 22.241,31.581 C22.241,31.581 21.545,30.626 21.284,29.751 C21.63,29.11 21.464,28.68 22.241,28.68 C23.18,28.68 23.436,29.28 23.202,29.779 ZM23.566,19.195 C23.295,20.63 22.605,20.998 22.605,20.998 C22.605,20.998 21.908,20.43 21.648,19.168 C21.427,18.429 21.827,17.485 22.605,17.485 C23.382,17.485 23.799,18.445 23.566,19.195 ZM28.83,24.61 C27.812,24.929 27.122,25.864 27.122,25.864 C27.122,25.864 26.426,24.910 26.165,24.34 C25.944,23.294 26.345,22.351 27.122,22.351 C27.899,22.351 28.317,23.311 28.83,24.61 ZM28.416,16.398 C28.146,17.265 27.456,18.200 27.456,18.200 C27.456,18.200 26.759,17.246 26.498,16.371 C26.278,15.631 26.679,14.688 27.456,14.688 C28.232,14.688 28.650,15.647 28.416,16.398 Z"/>
</svg>