<svg 
 xmlns="http://www.w3.org/2000/svg"
 xmlns:xlink="http://www.w3.org/1999/xlink"
 width="26px" height="38px">
<path fill-rule="evenodd"  fill="rgb(255, 255, 255)"
 d="M13.0,14.423 C9.640,14.423 6.916,19.368 6.916,24.132 C6.916,28.896 9.640,31.674 13.0,31.674 C16.361,31.674 19.85,28.896 19.85,24.132 C19.85,19.368 16.361,14.423 13.0,14.423 ZM25.900,23.410 C25.530,19.974 24.48,16.780 22.739,13.961 C22.359,13.141 21.999,12.367 21.688,11.631 C20.967,9.928 20.386,8.223 19.873,6.720 C18.943,3.994 18.271,2.25 17.184,1.91 C16.338,0.364 15.433,0.4 14.492,0.4 C13.996,0.4 13.498,0.104 13.22,0.312 C12.545,0.104 12.47,0.4 11.551,0.4 C10.610,0.4 9.704,0.364 8.858,1.91 C7.751,2.43 7.72,4.27 6.133,6.772 C5.630,8.241 5.61,9.904 4.353,11.599 C4.57,12.307 3.718,13.59 3.359,13.857 C2.61,16.733 0.591,19.994 0.147,23.381 C0.387,27.461 0.545,30.996 2.843,33.603 C5.678,36.820 9.909,37.981 12.949,37.996 L13.30,37.996 C15.965,37.996 20.118,36.870 22.971,33.708 C25.330,31.94 26.343,27.533 25.900,23.410 ZM21.83,32.17 C18.810,34.537 15.383,35.447 13.104,35.467 L12.938,35.467 C10.563,35.447 7.26,34.515 4.751,31.935 C2.923,29.861 2.221,27.93 2.665,23.709 C3.60,20.690 4.449,17.610 5.675,14.892 C6.42,14.80 6.388,13.311 6.698,12.571 C7.437,10.799 8.21,9.93 8.536,7.588 C9.222,5.582 9.932,3.509 10.517,3.6 C10.889,2.686 11.236,2.524 11.551,2.524 C11.788,2.524 12.38,2.615 12.296,2.794 L13.22,3.298 L13.748,2.794 C14.347,2.378 14.874,2.445 15.525,3.6 C16.89,3.490 16.790,5.546 17.468,7.534 C17.995,9.77 18.592,10.826 19.348,12.614 C19.676,13.390 20.44,14.183 20.434,15.22 C21.660,17.664 23.50,20.658 23.375,23.679 C23.745,27.117 22.973,29.922 21.83,32.17 Z"/>
</svg>