<svg xmlns="http://www.w3.org/2000/svg" width="43.62" height="44" viewBox="0 0 43.62 44">
  <defs>
    <style>
      .cls-1 {
        fill: #ffffff;
        fill-rule: evenodd;
      }
    </style>
  </defs>
  <path class="cls-1" d="M1122.27,1014.83a3.67,3.67,0,1,0,3.64,3.67A3.651,3.651,0,0,0,1122.27,1014.83Zm0,5.5a1.83,1.83,0,1,1,1.82-1.83A1.829,1.829,0,0,1,1122.27,1020.33Zm10.91-5.5a3.67,3.67,0,1,0,3.64,3.67A3.651,3.651,0,0,0,1133.18,1014.83Zm0,5.5a1.83,1.83,0,1,1,1.82-1.83A1.829,1.829,0,0,1,1133.18,1020.33Zm10.91-5.5a3.67,3.67,0,1,0,3.64,3.67A3.66,3.66,0,0,0,1144.09,1014.83Zm0,5.5a1.83,1.83,0,1,1,1.82-1.83A1.829,1.829,0,0,1,1144.09,1020.33Zm5.46-18.33h-32.73a5.482,5.482,0,0,0-5.46,5.5v22a5.482,5.482,0,0,0,5.46,5.5h10.91l-3.64,11,16.36-11h9.1a5.474,5.474,0,0,0,5.45-5.5v-22A5.474,5.474,0,0,0,1149.55,1002Zm3.63,27.5a3.651,3.651,0,0,1-3.63,3.67h-10l-12.73,9.16,3.63-9.16h-13.63a3.653,3.653,0,0,1-3.64-3.67v-22a3.66,3.66,0,0,1,3.64-3.67h32.73a3.658,3.658,0,0,1,3.63,3.67v22Z" transform="translate(-1111.38 -1002)"/>
</svg>
