<svg xmlns="http://www.w3.org/2000/svg" width="43.625" height="40.34" viewBox="0 0 43.625 40.34">
  <defs>
    <style>
      .cls-1 {
        fill: #ffffff;
        fill-rule: evenodd;
      }
    </style>
  </defs>
  <path class="cls-1" d="M254,1007.5H217.636a3.651,3.651,0,0,0-3.636,3.67v27.5a3.649,3.649,0,0,0,3.636,3.66H254a3.649,3.649,0,0,0,3.636-3.66v-27.5A3.651,3.651,0,0,0,254,1007.5Zm1.818,31.17A1.824,1.824,0,0,1,254,1040.5H217.636a1.824,1.824,0,0,1-1.818-1.83v-7.34h40v7.34Zm0-9.17h-40v-9.17h40v9.17Zm0-11h-40v-7.33a1.827,1.827,0,0,1,1.818-1.84H254a1.827,1.827,0,0,1,1.818,1.84v7.33Zm-23.636-14.67h7.273a1.827,1.827,0,0,1,1.818,1.84h1.818a3.651,3.651,0,0,0-3.636-3.67h-7.273a3.652,3.652,0,0,0-3.637,3.67h1.819A1.827,1.827,0,0,1,232.182,1003.83Z" transform="translate(-214 -1002)"/>
</svg>
