<svg xmlns="http://www.w3.org/2000/svg" width="43.656" height="44" viewBox="0 0 43.656 44">
  <defs>
    <style>
      .cls-1 {
        fill: #ffffff;
        fill-rule: evenodd;
      }
    </style>
  </defs>
  <path class="cls-1" d="M532.273,1028.89a4.532,4.532,0,0,0,6.209-1.68l3.791-15.79-11.664,11.2A4.614,4.614,0,0,0,532.273,1028.89Zm-0.2-5.14,6.974-6.7-2.267,9.44a2.716,2.716,0,0,1-3.6.81A2.765,2.765,0,0,1,532.077,1023.75Zm2.469-21.75a22,22,0,1,0,21.818,22A21.91,21.91,0,0,0,534.546,1002Zm0,42.17a20.074,20.074,0,0,1-19.977-19.25h3.613v-1.84h-3.593a20.139,20.139,0,0,1,5.2-12.66l2.545,2.56,1.285-1.3-2.543-2.56a19.837,19.837,0,0,1,12.562-5.26v3.64h1.819v-3.64a19.837,19.837,0,0,1,12.562,5.26l-2.543,2.56,1.285,1.3,2.545-2.56a20.139,20.139,0,0,1,5.2,12.66h-3.593v1.84h3.613A20.074,20.074,0,0,1,534.546,1044.17Z" transform="translate(-512.719 -1002)"/>
</svg>
